# xmcd
#
# Track frame offsets:
#	150
#	20024
#	37767
#	58466
#	75188
#	100301
#	119592
#	136283
#	151866
#	166368
#	179210
#	196509
#	215166
#	234547
#	252411
#	271987
#	286241
#	303344
#	324121
#	336032
#
# Disc length: 4649 seconds
#
# Revision: 0
# Processed by: cddbd v1.5.2PL0 Copyright (c) Steve Scherf et al.
# Submitted via: EasyCDDAExtractor 10.0.6.1
#
DISCID=19122714
DTITLE=Various Artist - Dancemix Summer Athems
DYEAR=2007
DGENRE=Dance
TTITLE0=Angel City - Do You Know (I Go Crazy)
TTITLE1=DJ Sammy and Yanou Feat. Do - Heaven
TTITLE2=DHT Feat. Edmée - Listen To Your Heart (Hixxy Remix)
TTITLE3=PPK - Resurrection
TTITLE4=Jurgen Vries - The Opera Song (Brave New World)
TTITLE5=iio - Rapture (Riva Remix)
TTITLE6=Corona - Baby Baby
TTITLE7=Tomcraft - Loneliness (Club Mix)
TTITLE8=Benny Benassi Presents The Biz - Satisfaction
TTITLE9=Picco - Back To Hawaii (Kindervater Inc. Hand Up Remix)
TTITLE10=Dance Nation - Move Your Love (Inspirational Vibes Extended Mix)
TTITLE11=Dennis Christopher - It's Not Right (Hypasonic Remix)
TTITLE12=Groove Coverage - Moonlight Shadow (Northstarz Remix)
TTITLE13=The Real Booty Babes - Since U Been Gone (Club Mix)
TTITLE14=QFX - Freedom (Voodoo and Serano Mix)
TTITLE15=Steve'N King - Bounce (Totale Controle Remix)
TTITLE16=Novaspace - Time After Time
TTITLE17=Dream-Factory Feat. Jessica Palmer - Leave A Light On
TTITLE18=Ian Van Dahl - Will I
TTITLE19=Soda Club Feat. Hannah Alethea - Heaven Is A Place On Earth (Soda Clu
TTITLE19=b Mix)
EXTD=
EXTT0=
EXTT1=
EXTT2=
EXTT3=
EXTT4=
EXTT5=
EXTT6=
EXTT7=
EXTT8=
EXTT9=
EXTT10=
EXTT11=
EXTT12=
EXTT13=
EXTT14=
EXTT15=
EXTT16=
EXTT17=
EXTT18=
EXTT19=
PLAYORDER=
